<svg height="32" viewBox="0 0 1024 1024" width="32" xmlns="http://www.w3.org/2000/svg"><g fill="#8a8a8a"><path d="m697.15674 422.956522h150.574408c37.145726 0 67.35657 30.003266 67.35657 66.845306v422.831127 89.106174l22.456141-22.260869h-89.604011-629.21303c-37.018835 0-67.14787-29.991714-67.14787-66.845305v-422.831127c0-17.016032 0-17.016032 0-39.67472 0-7.207452 0-7.207452 0-14.233299 0-27.178196 0-27.178196 0-35.198157l-22.456141 22.26087h35.742927 13.666046 40.374474 135.531451c12.402182 0 22.456138-9.966532 22.456138-22.26087s-10.053956-22.260871-22.456138-22.260871h-135.531451c-17.144196 0-17.144196 0-40.374474 0-6.913226 0-6.913226 0-13.666046 0-27.569595 0-27.569595 0-35.742927 0-12.402183 0-22.45614 9.966533-22.45614 22.260871v35.198157 14.233299 39.67472 422.831127c0 61.400851 50.194973 111.367044 112.060151 111.367044h629.21303 89.604011c12.402184 0 22.456141-9.96653 22.456141-22.26087v-89.106174-422.831127c0-61.412408-50.30025-111.367047-112.268852-111.367047h-150.574408c-12.402184 0-22.456141 9.966533-22.456141 22.260871s10.053957 22.26087 22.456141 22.26087z"/><path d="m347.996815 282.764936 200.763624-223.436964-33.422954.126494 200.501917 219.744217c8.319461 9.117886 22.52006 9.823783 31.717925 1.576664 9.197866-8.247117 9.909956-22.324233 1.590494-31.442116l-200.501918-219.744219-16.782558-18.393192-16.640395 18.519686-200.763624 223.436965c-8.248987 9.180591-7.42849 23.251906 1.832632 31.429163 9.261122 8.177256 23.455869 7.363893 31.704857-1.816698z"/><path d="m511.087716 78.416783-.421039 703.826111c-.007355 12.294336 10.040638 22.266776 22.442818 22.274067 12.402183.00729 22.4621-9.953329 22.469455-22.247665l.421039-703.826111c.007356-12.294337-10.040638-22.266776-22.442818-22.274067-12.402182-.00729-22.462099 9.953328-22.469455 22.247665z"/></g></svg>