<svg height="32" viewBox="0 0 1024 1024" width="32" xmlns="http://www.w3.org/2000/svg"><g fill="#8a8a8a"><path d="m607.593321 894.42281c20.423305-10.211652 45.952436-10.211652 66.375741 0l132.751482 71.481567h5.105826c5.105826 0 5.105826-5.105826 5.105826-10.211652l-25.529131-158.280613c0-15.317479 0-30.634957 5.105826-40.84661 5.105826-5.105826 10.211652-15.317479 15.317479-20.423305-10.211652-30.634957-15.317479-51.058262-15.317479-66.375741s5.105826-40.84661 15.317479-71.481567l-51.058262-5.105826c-20.423305-5.105826-40.84661-20.423305-51.058263-40.84661l-66.37574-142.963134s0-5.105826-5.105827-5.105826-5.105826 0-5.105826 5.105826l-66.375741 142.963134c-10.211652 20.423305-30.634957 35.740784-51.058262 40.84661l-153.174787 25.529131h-5.105826v15.317479l107.222351 112.328177c15.317479 15.317479 20.423305 40.84661 20.423305 61.269914l-10.211653 56.164089z"/><path d="m459.52436 848.470374c30.634957-20.423305 71.481567-20.423305 107.222351 0l219.550528 122.53983h5.105826c5.105826 0 10.211652-5.105826 10.211653-15.317479l-40.84661-255.291311c-5.105826-35.740784 5.105826-71.481567 30.634957-102.116525l178.703918-183.809744v-5.105826c0-5.105826-5.105826-15.317479-10.211652-15.317479l-245.079659-40.84661c-35.740784-5.105826-66.375741-30.634957-81.69322-61.269914l-112.328177-234.868007-5.105826-5.105826c-5.105826 0-10.211652 0-15.317479 5.105826l-107.222351 234.868007c-20.423305 35.740784-51.058262 56.164088-86.799045 61.269914l-245.079659 40.84661s-5.105826 0-5.105827 5.105826c-5.105826 0-5.105826 10.211652 0 15.317479l178.703918 183.809744c25.529131 25.529131 35.740784 61.269915 30.634958 102.116525l-40.84661 255.291311v10.211652c0 5.105826 10.211652 5.105826 10.211652 5.105827zm-199.127222 168.492266c-30.634957 15.317479-66.375741 5.105826-81.69322-25.529131-5.105826-10.211652-10.211652-25.529131-5.105826-40.84661l40.84661-255.291312c5.105826-20.423305-5.105826-40.84661-15.317479-56.164088l-178.703918-188.91557c-25.529131-25.529132-25.529131-66.375741 0-91.904872 5.105826-5.105826 20.423305-15.317479 30.634957-15.317479l250.185485-35.740784c20.423305-5.105826 35.740784-15.317479 45.952436-35.740783l112.328177-234.868007c15.317479-30.634957 51.058262-45.952436 81.69322-30.634957 10.211652 5.105826 20.423305 15.317479 25.529131 30.634957l112.328177 234.868007c10.211652 20.423305 25.529131 30.634957 45.952436 35.740783l245.079659 35.740784c35.740784 5.105826 56.164088 35.740784 51.058262 71.481567 0 15.317479-10.211652 25.529131-15.317478 35.740784l-178.703918 183.809744c-15.317479 15.317479-20.423305 35.740784-15.317479 56.164088l40.84661 255.291312c5.105826 35.740784-15.317479 66.375741-51.058262 71.481567-15.317479 0-25.529131 0-40.84661-5.105827l-219.550528-122.539829c-15.317479-10.211652-40.84661-10.211652-56.164088 0z"/></g></svg>