<svg height="32" viewBox="0 0 1024 1024" width="32" xmlns="http://www.w3.org/2000/svg"><path d="m926.208 181.930667h-508.885333a107.861333 107.861333 0 0 0 -209.749334 0h-109.866666a25.6 25.6 0 0 0 0 51.2h109.781333a107.861333 107.861333 0 0 0 209.792 0h508.885333a25.6 25.6 0 1 0 0-51.2zm-613.76 82.773333a57.088 57.088 0 1 1 57.088-57.173333 57.173333 57.173333 0 0 1 -57.088 57.173333zm613.76 221.696h-109.738667a107.861333 107.861333 0 0 0 -209.792 0h-508.970666a25.6 25.6 0 1 0 0 51.2h508.928a107.861333 107.861333 0 0 0 209.792 0h109.738666a25.6 25.6 0 1 0 0-51.2zm-214.656 82.730667a57.088 57.088 0 1 1 57.130667-57.173334 57.173333 57.173333 0 0 1 -57.173334 57.173334zm214.656 221.738666h-508.885333a107.861333 107.861333 0 0 0 -209.749334 0h-109.866666a25.6 25.6 0 1 0 0 51.157334h109.781333a107.861333 107.861333 0 0 0 209.792 0h508.885333a25.6 25.6 0 0 0 0-51.2zm-613.76 82.688a57.088 57.088 0 1 1 57.088-57.088 57.173333 57.173333 0 0 1 -57.088 57.088z" fill="#1296db"/></svg>