<svg class="icon" viewBox="0 0 1024 1024" version="1.1" xmlns="http://www.w3.org/2000/svg" width="32" height="32">
    <path
        d="M546.942134 511.818772l327.456957-326.128977c9.617355-9.577423 9.648071-25.135361 0.070648-34.751692-9.577423-9.617355-25.137409-9.647048-34.750668-0.070648L512.119795 477.137729 184.520518 150.868479c-9.616331-9.577423-25.176316-9.545683-34.751692 0.070648-9.577423 9.616331-9.545683 25.174268 0.070648 34.751692l327.457981 326.127953-327.457981 326.128978c-9.616331 9.577423-9.647048 25.135361-0.070648 34.751692a24.496456 24.496456 0 0 0 17.41117 7.231702 24.500552 24.500552 0 0 0 17.340522-7.162078L512.119795 546.499816l327.599276 326.26925a24.492361 24.492361 0 0 0 17.340522 7.162078 24.5026 24.5026 0 0 0 17.41117-7.231702c9.577423-9.617355 9.545683-25.175292-0.070648-34.751692L546.942134 511.818772z"
        fill="#8a8a8a" />
</svg>