<svg height="32" viewBox="0 0 1024 1024" width="32" xmlns="http://www.w3.org/2000/svg"><g fill="#1296db"><path d="m289.415 968.084a67.656 67.656 0 0 1 -28.834-6.467c-20.884-9.432-34.762-30.316-35.301-53.221v-2.021l9.566-73.701h-76.53c-110.754 0-134.063-68.177-134.063-125.306v-479.124c0-41.23 12.26-73.297 36.379-95.124 23.579-21.288 57.802-32.067 101.86-32.067l700.497.943c46.62 0 82.19 12.126 105.634 36.11 21.423 21.961 31.933 52.547 31.124 91.081v478.45c.809 39.479-9.296 70.334-30.18 91.622-22.502 23.04-56.051 34.223-102.535 34.223l-336.843-.943-206.416 126.114c-10.645 6.198-22.501 9.431-34.358 9.431zm-9.97-59.823c.403 1.752 1.616 3.368 3.368 4.177l.808.404c4.042 1.886 8.623 1.752 12.53-.404l218.949-133.66 352.067.944c30.586 0 52.143-6.063 63.866-18.055 10.51-10.644 15.36-28.025 14.82-52.951v-480.337c.54-23.579-4.715-41.364-15.764-52.547-12.934-13.205-35.57-19.941-67.099-19.941l-700.496-.944c-74.106 0-84.21 35.167-84.21 73.297v478.99c0 25.734 5.658 43.52 17.515 54.433 12.26 11.318 33.415 16.977 62.653 16.977h137.835z"/><path d="m249.667 450.29a47.158 47.158 0 1 0 94.316 0 47.158 47.158 0 1 0 -94.316 0zm215.175 0a47.158 47.158 0 1 0 94.316 0 47.158 47.158 0 1 0 -94.316 0zm215.31 0a47.158 47.158 0 1 0 94.315 0 47.158 47.158 0 1 0 -94.315 0z"/></g></svg>