<svg height="32" viewBox="0 0 1026 1024" width="32" xmlns="http://www.w3.org/2000/svg"><path d="m1019.109859 384c-11.286261-32.01113-39.713391-55.05113-74.195478-60.126609l-243.222261-35.639652-105.627826-216.019478c-15.270957-31.276522-48.261565-51.489391-84.057043-51.489391-35.706435 0-68.652522 20.21287-83.968 51.489391l-105.672348 216.041739-243.200001 35.684174c-34.504348 4.964174-62.953739 27.981913-74.24 60.17113-11.264 32.50087-2.871652 67.806609 21.882435 92.137739l178.509913 175.638261-41.405217 243.378087c-5.810087 33.925565 9.282783 68.719304 38.555826 88.687304 28.627478 19.255652 67.005217 21.370435 97.836522 5.164522l211.745391-112.39513 211.878957 112.417391c13.712696 7.234783 29.094957 11.063652 44.521739 11.063652 19.010783 0 37.420522-5.609739 53.337043-16.317217 29.139478-19.878957 44.210087-54.650435 38.4-88.576l-41.382957-243.400348 178.532174-175.638261c24.709566-24.353391 33.101913-59.681391 21.771131-92.271304zm-53.047652 60.527304-195.094261 191.955478 45.278609 266.329043c2.938435 17.096348-4.585739 34.05913-19.478261 44.232348-15.248696 10.24-35.817739 11.330783-52.045913 2.782609l-232.715131-123.503304-232.537043 123.436522c-16.406261 8.637217-36.997565 7.479652-52.045913-2.671304-15.048348-10.262261-22.572522-27.247304-19.634087-44.343652l45.30087-266.284522-195.072-191.955478c-12.377043-12.154435-16.606609-29.718261-11.063652-45.723826 5.765565-16.384 20.524522-28.182261 38.622609-30.786783l266.48487-39.112348 115.97913-237.122783c7.880348-16.11687 25.154783-26.534957 43.987478-26.534957 18.899478 0 36.173913 10.395826 44.054261 26.512696l115.95687 237.122783 266.418087 39.023304c18.075826 2.671304 32.901565 14.514087 38.64487 30.809043 5.565215 16.09461 1.33565 33.636175-11.041393 45.835131zm-457.015652-67.628521c-45.590261 0-82.320696 13.913043-109.122783 41.316174-44.744348 45.746087-43.78713 112.194783-43.720348 115.021913.26713 12.109913 10.173217 21.726609 22.238609 21.726609h.422957c12.265739-.222609 22.016-10.373565 21.837913-22.639304 0-.512-.400696-51.066435 31.254261-83.18887 18.098087-18.387478 44.054261-27.692522 77.06713-27.692522 12.288 0 22.26087-9.97287 22.26087-22.26087s-9.950609-22.28313-22.238609-22.28313z" fill="#8a8a8a"/></svg>