<svg height="32" viewBox="0 0 1024 1024" width="32" xmlns="http://www.w3.org/2000/svg"><g fill="#8a8a8a"><path d="m607.897867 768.043004c-17.717453 0-31.994625-14.277171-31.994625-31.994625v-352.112884c0-17.717453 14.277171-31.994625 31.994625-31.994625s31.994625 14.277171 31.994625 31.994625v351.94087c-.000001 17.717453-14.277172 32.166639-31.994625 32.166639z"/><path d="m415.930119 768.043004c-17.717453 0-31.994625-14.277171-31.994625-31.994625l.000001-352.112884c0-17.717453 14.277171-31.994625 31.994625-31.994625 17.717453 0 31.994625 14.277171 31.994625 31.994625v351.94087c-.000001 17.717453-14.277172 32.166639-31.994626 32.166639z"/><path d="m928.016126 223.962372h-159.973123l.000001-63.989249c0-52.980346-42.659499-95.983874-95.295817-95.983874h-320.806317c-52.980346 0-95.983874 43.003528-95.983874 95.983874v63.989249h-159.973123c-17.717453 0-31.994625 14.277171-31.994625 31.994625s14.277171 31.994625 31.994625 31.994625h832.032253c17.717453 0 31.994625-14.277171 31.994625-31.994625s-14.277171-31.994625-31.994625-31.994625zm-608.06988-63.989249c0-17.545439 14.449185-31.994625 31.994625-31.994625h320.806316c17.545439 0 31.306568 14.105157 31.306568 31.994625v63.989249h-384.107509z"/><path d="m736.048379 960.010751h-447.924744c-52.980346 0-95.983874-43.003528-95.983874-95.983874v-480.435411c0-17.717453 14.277171-31.994625 31.994625-31.994625s31.994625 14.277171 31.994625 31.994625v480.435411c0 17.717453 14.449185 31.994625 31.994625 31.994625h448.096758c17.717453 0 31.994625-14.277171 31.994625-31.994625l-.000001-479.231312c0-17.717453 14.277171-31.994625 31.994625-31.994625s31.994625 14.277171 31.994625 31.994625v479.231312c-.172015 52.808332-43.175543 95.983874-96.155889 95.983874z"/></g></svg>