<svg t="1661872491240" class="icon" viewBox="0 0 1024 1024" version="1.1" xmlns="http://www.w3.org/2000/svg" p-id="5687" width="32" height="32"><path d="M793.033105 52.915685h203.521866c4.433568 0 8.233768 3.800201 8.233768 8.233769v524.427712c0 4.433568-3.800201 8.233768-8.233768 8.233768h-203.521866c-4.433568 0-8.233768-3.800201-8.233768-8.233768v-524.427712c0-4.433568 3.589079-8.233768 8.233768-8.233769z" fill="#8a8a8a" p-id="5688"></path><path d="M423.146893 981.009173c27.445895 20.056615 59.536479 25.545794 86.771251 25.545794 31.879462 0 56.580768-7.600402 58.480869-8.233768 8.022646-2.533467 13.300703-9.922747 13.300702-18.156515v-180.931784c0-61.43658 29.134873-113.372658 86.771252-154.541499 44.546798-31.879462 90.149208-44.969043 90.571453-45.180166 0.422245 0 0.633367-0.211122 1.055611-0.422244l10.767236-3.589079c6.333668 10.344991 17.523148 17.312026 30.612729 17.312026h186.843206c19.634371 0 35.679663-16.045292 35.679664-35.679663v-507.749053c0-19.634371-16.045292-35.679663-35.679664-35.679663h-187.054329c-16.889781 0-31.034973 11.822847-34.624051 27.445895-25.12355-26.812528-60.803213-43.702309-100.4942-43.70231h-442.934517c-94.160531 0-154.330377 49.191488-164.886491 135.118251l-56.580767 359.330099c-8.233768 52.1472 13.089581 104.927767 54.469545 134.484885 23.434572 16.889781 51.091589 25.756917 80.015339 25.756916h230.334394v168.053325c0 65.870147 19.001004 113.161535 56.580768 140.818553z m380.86457-908.881362h181.776272v502.682119h-181.776272v-502.682119z m-667.779732 561.796354c-20.901104 0-40.746598-6.333668-57.636379-18.578759-29.557117-21.323349-44.969043-59.536479-38.846497-97.538488l56.369645-359.541221v-0.633367c10.344991-84.026662 74.737283-101.760933 127.095605-101.760933h442.934517c54.89179 0 99.438588 44.546798 99.438588 99.438588v401.554552l-17.523148 5.911424c-6.122546 1.688978-53.202811 16.045292-100.916444 50.035977-67.770248 48.135877-103.661033 112.528169-103.661033 186.20984v165.942102c-21.745594 4.222445-65.659025 8.656013-97.74961-14.989681-27.02365-19.845493-40.746598-56.79189-40.746597-109.783579v-187.265451c0-10.556113-8.656013-19.212126-19.212127-19.212126h-249.54652v0.211122z" fill="#8a8a8a" p-id="5689"></path></svg>