<svg t="1661937587213" class="icon" viewBox="0 0 1057 1024" version="1.1" xmlns="http://www.w3.org/2000/svg" p-id="5253" width="32" height="32"><path d="M680.893398 847.064455V682.666667h227.394602c80.962602 0 147.073041-66.102114 147.073041-147.547578v-4.537235a26.557398 26.557398 0 0 0-0.432911-4.104326l-60.507577-381.519089C983.223154 53.356228 919.485398 0.649366 819.782764 0.649366H369.306016c-80.970927 0-147.081366 66.102114-147.081366 147.547577v423.644618a23.102439 23.102439 0 0 1-23.035837 23.119089H75.800976a23.102439 23.102439 0 0 1-23.044163-23.119089V122.921626a23.102439 23.102439 0 0 1 23.044163-23.110764h71.272065a26.507447 26.507447 0 0 0 26.490796-26.574049 26.648976 26.648976 0 0 0-26.490796-26.574049H75.800976C34.025106 46.662764 0 80.796098 0 122.713496v449.13639c0 41.909073 34.025106 76.042407 75.800976 76.042407h123.379512c29.720976 0 55.562407-17.283122 68.050211-42.341984 1.723317 1.082276 3.663089 1.731642 5.819317 2.381008 7.101398 1.939772 175.278829 51.624585 175.27883 197.015935v184.711285a26.64065 26.64065 0 0 0 18.523577 25.275317c1.931447 0.649366 27.989333 8.641561 61.581528 8.641561 28.855154 0 63.096715-5.827642 92.376456-27.431545 39.844423-29.387967 60.082992-79.505691 60.082991-149.07109zM589.590894 953.36065c-27.781203 20.729756-66.102114 18.789984-88.49691 15.11857V805.155382c0-185.785236-205.00813-245.410341-213.832846-248.007805a25.433496 25.433496 0 0 0-12.063219-0.424585v-408.517724c0-52.074146 42.20878-94.632585 94.324553-94.632585h450.476748c73.211837 0 114.346667 32.842927 122.530341 98.73691l60.291122 380.212033v2.381008c0 52.057496-42.20878 94.615935-94.324553 94.615935h-254.085203a26.507447 26.507447 0 0 0-26.490797 26.574049v190.980162c0.216455 51.624585-12.70426 87.273106-38.329236 106.28787z" fill="#8a8a8a" p-id="5254"></path></svg>