<svg height="32" viewBox="0 0 1024 1024" width="32" xmlns="http://www.w3.org/2000/svg"><path d="m788.928 947.068c44.791-.026 88.391-36.662 96.236-80.78l62.009-348.36c12.22-68.533-32.882-121.997-102.398-121.48l-12.454.104a24238.935 24238.935 0 0 1 -64.131.44 4311.848 4311.848 0 0 1 -68.87 0l-37.619-.517 13.955-34.953c12.428-31.12 26.409-116.198 26.098-155.37-.75-88.65-38.06-139.396-84.093-138.852-56.571.673-84.3 28.48-84.145 110.605.259 136.729-123.965 274.416-273.225 273.2a1473.443 1473.443 0 0 0 -25.037 0l-4.272.051c-.233 0 .777 496.507.777 496.507 0-.103 557.17-.595 557.17-.595zm-20.997-601.858a18607.719 18607.719 0 0 0 63.95-.44l12.48-.104c101.957-.75 171.655 81.945 153.79 182.349l-62.007 348.335c-12.246 68.766-77.284 123.422-147.163 123.5l-556.962.465a51.782 51.782 0 0 1 -52.04-51.47l-1.036-496.585a51.73 51.73 0 0 1 51.393-51.86l4.453-.051c7.172-.078 15.923-.078 25.891 0 119.15.958 221.237-112.185 221.055-221.34-.207-110.684 50.487-161.455 135.28-162.491 79.096-.932 135.538 75.86 136.47 190.194.31 34.564-8.311 95.666-19.056 139.628 9.735 0 20.972-.051 33.477-.129zm-691.517 110.451v491.925h28.48a25.89 25.89 0 0 1 0 51.781h-47.69a32.415 32.415 0 0 1 -32.571-32.363v-530.761c0-17.942 14.654-32.363 32.493-32.363h47.225a25.89 25.89 0 0 1 0 51.781z" fill="#1296db"/></svg>