<svg height="32" version="1.1" viewBox="0 0 1024 1024" width="32"
    xmlns="http://www.w3.org/2000/svg">
    <path
        d="M970.848 347.552v168.16l38.304 46.528-74.08 67.072-68.128-67.072 40.864-47.392v-139.584c-218.88 93.056-278.496 122.56-327.008 144.928s-83.456 22.368-132 3.584c-47.712-18.784-266.592-105.568-380.672-161.92C-7.68 324.288-12.8 300.128 69.824 267.936c107.296-42.016 274.208-110.016 367.904-146.688 55.36-23.264 85.152-35.776 136.256-9.824 91.136 39.328 288.704 119.84 392.608 164.576 90.272 41.12 29.824 54.56 4.256 71.552z m-378.976 242.4c52.8-22.368 124.352-59.936 202.688-94.816v277.28s-100.48 110.944-278.496 110.944c-190.752 0-293.824-110.944-293.824-110.944v-259.424c60.48 25.056 127.744 47.392 209.504 76.032 50.272 19.712 114.144 25.952 160.128 0.928z"
        fill="#8a8a8a"></path>
</svg>