<svg height="32" viewBox="0 0 1024 1024" width="32" xmlns="http://www.w3.org/2000/svg"><path d="m510.893132.134062a399.947632 399.947632 0 0 0 -56.728572 2.559665 547.544306 547.544306 0 0 0 -131.534777 33.467618s345.554754 339.955487 353.329736 352.849799v-360.560789a516.956311 516.956311 0 0 0 -165.066387-28.316293zm361.072722 149.38844c-12.798324-12.798324-28.380284-25.596648-43.83426-38.618943a494.783214 494.783214 0 0 0 -118.672462-69.65488s2.591661 484.192601 0 499.646578l257.886233-257.53428a488.608023 488.608023 0 0 0 -95.411507-133.934463zm113.48914 175.145067s-340.499416 345.074817-353.393727 352.817803h363.664382a499.582586 499.582586 0 0 0 28.380284-162.250756 398.155866 398.155866 0 0 0 -2.59166-56.66458 677.57528 677.57528 0 0 0 -36.091275-133.934463zm-505.533806 391.468742 257.886233 257.534279a550.775883 550.775883 0 0 0 134.094442-95.283524 515.13255 515.13255 0 0 0 108.305818-159.69109c0-2.559665-484.864513 0-500.318489-2.559665zm-134.126438-82.421208v363.120454a500.126515 500.126515 0 0 0 221.794958 23.164967 449.029205 449.029205 0 0 0 131.534778-33.467618c2.591661 2.591661-342.995089-339.955487-353.329736-352.849799zm-36.091275-149.38844-257.918228 257.630267a280.795233 280.795233 0 0 0 15.485972 28.316292 478.081401 478.081401 0 0 0 123.663808 144.141127 494.81521 494.81521 0 0 0 118.640465 69.526896s-2.591661-484.192601 0-499.646577zm-291.545825-103.026509a460.995638 460.995638 0 0 0 -18.045637 131.342802 398.187862 398.187862 0 0 0 2.687648 56.536597 447.429415 447.429415 0 0 0 33.531609 131.342802s340.435424-345.106813 353.329736-352.849798h-363.664383c-2.591661 12.798324-5.151325 23.164967-7.742986 33.467617zm237.280931-309.047535a542.39298 542.39298 0 0 0 -105.586175 79.989527 515.13255 515.13255 0 0 0 -108.305819 159.69109s484.864513-2.559665 500.31849 0l-257.886233-257.534279c-10.302651 7.71099-20.637298 12.798324-28.380284 18.013641zm0 0" fill="#8a8a8a"/></svg>