<svg height="32" viewBox="0 0 1024 1024" width="32" xmlns="http://www.w3.org/2000/svg"><path d="m946.901333 439.424c-15.104-11.136-33.962667-25.045333-36.437333-34.261333-2.688-10.112 6.912-32.256 14.677333-50.048 13.312-30.549333 27.050667-62.208 11.776-88.533334-15.402667-26.666667-50.005333-30.592-83.413333-34.346666-19.072-2.133333-42.794667-4.778667-49.877333-11.904-7.125333-7.125333-9.770667-30.848-11.904-49.877334-3.754667-33.408-7.637333-67.968-34.346667-83.413333-23.210667-13.482667-57.6-1.706667-88.533333 11.776-17.066667 7.424-34.901333 14.506667-50.090667 14.677333-9.216-2.474667-23.082667-21.333333-34.261333-36.437333-19.2-26.112-41.002667-55.722667-72.490667-55.722667-31.445333 0-53.290667 29.610667-72.533333 55.722667-11.178667 15.146667-25.045333 34.005333-38.101334 36.864-11.52 0-29.184-7.68-46.250666-15.104-31.018667-13.482667-65.450667-25.130667-88.490667-11.776-26.752 15.445333-30.634667 50.005333-34.389333 83.456-2.133333 19.072-4.778667 42.752-11.861334 49.877333-7.125333 7.082667-30.848 9.770667-49.877333 11.861334-33.450667 3.754667-68.053333 7.68-83.456 34.346666-15.232 26.325333-1.493333 57.941333 11.776 88.533334 7.765333 17.792 17.408 39.978667 14.677333 50.090666-2.474667 9.216-21.290667 23.125333-36.437333 34.261334-26.112 19.2-55.722667 41.045333-55.722667 72.533333s29.610667 53.333333 55.765334 72.576c15.104 11.136 33.962667 25.045333 36.437333 34.261333 2.688 10.112-6.912 32.256-14.677333 50.048-13.312 30.549333-27.050667 62.208-11.776 88.533334 15.402667 26.666667 50.005333 30.592 83.413333 34.346666 19.072 2.133333 42.794667 4.778667 49.877333 11.904 7.125333 7.125333 9.770667 30.848 11.904 49.877334 3.754667 33.408 7.637333 67.968 34.346667 83.413333 23.082667 13.44 57.472 1.706667 88.490667-11.776 17.066667-7.424 34.602667-14.976 50.090666-14.677333 9.216 2.474667 23.082667 21.333333 34.261334 36.437333 19.242667 26.112 41.045333 55.722667 72.533333 55.722667 31.445333 0 53.290667-29.610667 72.533333-55.722667 11.178667-15.146667 25.045333-34.005333 38.101334-36.906667 11.52 0 29.184 7.68 46.250666 15.104 31.104 13.482667 65.450667 25.173333 88.490667 11.818667 26.752-15.445333 30.634667-50.005333 34.389333-83.456 2.133333-19.072 4.778667-42.752 11.861334-49.877333 7.125333-7.125333 30.848-9.770667 49.877333-11.904 33.450667-3.754667 68.053333-7.637333 83.456-34.346667 15.232-26.325333 1.493333-57.941333-11.776-88.533333-7.765333-17.792-17.365333-39.978667-14.677333-50.048 2.474667-9.216 21.290667-23.125333 36.437333-34.261334 26.112-19.2 55.722667-41.045333 55.722667-72.533333s-29.610667-53.333333-55.765334-72.576zm-541.568 157.909333a21.333333 21.333333 0 0 1 -38.4 12.8l-89.6-119.466666v106.666666a21.333333 21.333333 0 0 1 -42.666666 0v-170.666666a21.333333 21.333333 0 0 1 38.4-12.8l89.6 119.466666v-106.666666a21.333333 21.333333 0 0 1 42.666666 0zm149.333334-106.666666a21.333333 21.333333 0 0 1 0 42.666666h-64v42.666667h64a21.333333 21.333333 0 0 1 0 42.666667h-85.333334a21.333333 21.333333 0 0 1 -21.333333-21.333334v-170.666666a21.333333 21.333333 0 0 1 21.333333-21.333334h85.333334a21.333333 21.333333 0 0 1 0 42.666667h-64v42.666667zm276.693333-58.837334-42.666667 170.666667a21.290667 21.290667 0 0 1 -19.882666 16.128h-.853334a21.333333 21.333333 0 0 1 -20.266666-14.592l-22.357334-67.242667-22.4 67.285334a20.309333 20.309333 0 0 1 -21.077333 14.549333 21.333333 21.333333 0 0 1 -19.882667-16.128l-42.666666-170.666667a21.333333 21.333333 0 0 1 41.386666-10.325333l24.874667 99.584 19.498667-58.496c5.845333-17.408 34.688-17.408 40.490666 0l19.498667 58.496 24.874667-99.584a21.205333 21.205333 0 0 1 25.856-15.530667 21.333333 21.333333 0 0 1 15.573333 25.856z" fill="#8a8a8a"/></svg>