<svg t="1660882466521" class="icon" viewBox="0 0 1024 1024" version="1.1" xmlns="http://www.w3.org/2000/svg" p-id="26206" width="32" height="32"><path d="M512 0C229.2224 0 0 229.2224 0 512s229.2224 512 512 512 512-229.2224 512-512S794.7776 0 512 0z m35.242667 739.1744a34.133333 34.133333 0 0 1-68.266667 0v-15.104a34.133333 34.133333 0 0 1 68.266667 0v15.104z m-0.1536-153.856l0.136533 33.979733a34.133333 34.133333 0 0 1-68.266667 0v-34.116266a68.334933 68.334933 0 0 1 54.5792-66.7648c55.842133-11.298133 90.9312-64.546133 79.9232-121.2416a101.376 101.376 0 0 0-79.496533-79.479467c-31.3344-6.0416-61.883733 1.467733-85.9648 21.2992a102.178133 102.178133 0 0 0-37.3248 79.069867 34.133333 34.133333 0 0 1-68.266667 0c0-51.1488 22.664533-99.1744 62.1568-131.7376s91.409067-45.550933 142.404267-35.6352c66.850133 12.987733 120.490667 66.628267 133.4784 133.461333 17.988267 92.433067-41.847467 182.664533-133.358933 201.1648z" fill="#8a8a8a" p-id="26207"></path></svg>