<svg height="32" viewBox="0 0 1024 1024" width="32" xmlns="http://www.w3.org/2000/svg"><path d="m592.795 942.076v-255.69h-160.738v256.373c-5.023.259-9.03.647-13.039.647-75.894 0-151.828.041-227.727 0-26.08 0-43.618-16.728-43.733-44.43-.527-105.2-.367-210.487.116-315.687 0-5.548 4.214-12.642 8.466-16.429 68.687-60.686 137.734-120.984 206.665-181.33 45.884-40.168 91.73-80.34 137.612-120.467 3.565-3.098 7.213-6.106 11.704-9.94 27.377 23.917 54.633 47.7 81.849 71.527 89.783 78.58 179.449 157.332 269.476 235.612 9.68 8.384 13.81 16.899 13.728 30.446-.566 99.872-.406 199.778-.2 299.603.037 18.152-4.215 33.937-19.322 43.959-5.467 3.649-12.392 6.794-18.668 6.836-80.551.43-161.103.21-241.61.17-1.174.002-2.395-.558-4.579-1.2zm120.97-707.89c0-42.193-.04-81.159 0-120.085.037-24.858 5.626-30.794 28.995-30.836 36.287 0 72.574-.04 108.861.042 18.711.047 25.187 7.053 25.23 28.086.085 83.307.283 166.664-.244 249.971-.082 12.86 3.322 21.115 12.834 29.287 39.775 33.98 78.772 68.901 117.975 103.61 19.233 17.034 19.721 25.33 3.521 45.591-9.797 12.3-19.393 24.817-29.278 37.076-12.148 15.178-22.194 16.126-36.73 3.221-139.193-123.352-278.386-246.788-417.622-370.18-4.82-4.258-9.759-8.433-15.392-13.338-31.303 27.703-62.366 55.1-93.348 82.58-112.988 100.13-225.979 200.296-338.97 300.42-15.308 13.59-24.821 12.777-37.7-3.225a4194.073 4194.073 0 0 1 -31.75-40.08c-12.232-15.657-11.744-25.766 3.036-38.967 63.054-56.043 126.275-111.871 189.451-167.783 84.194-74.536 168.471-148.983 252.627-223.647 38.187-33.85 75.366-33.85 113.639.257 45.235 40.298 90.597 80.43 135.91 120.598 2.151 1.897 4.418 3.657 8.954 7.402zm0 0" fill="#8a8a8a"/></svg>