<svg height="32" viewBox="0 0 1024 1024" width="32" xmlns="http://www.w3.org/2000/svg"><path d="m882.176 828.416 6.656 6.656 134.656 134.656h-511.488c-282.624.512-512-204.8-512-457.728s229.376-458.24 512-458.24 512 205.312 512 458.24c0 122.88-53.76 233.984-141.824 316.416zm-208.384-235.52c44.544 0 80.896-36.352 80.896-80.896s-36.352-80.896-80.896-80.896-80.896 36.352-80.896 80.896 36.352 80.896 80.896 80.896zm-323.584 0c44.544 0 80.896-36.352 80.896-80.896s-36.352-80.896-80.896-80.896-80.384 36.352-80.384 80.896 35.84 80.896 80.384 80.896z" fill="#8a8a8a"/></svg>