<svg height="32" viewBox="0 0 1024 1024" width="32" xmlns="http://www.w3.org/2000/svg"><path d="m960.053562 1023.999-.938999-7.790992c-26.039974-215.32479-226.607778-390.529619-447.114563-390.529619s-421.074589 175.186829-447.095563 390.530619l-.939999 7.790992h-58.874943l1.050999-9.81999c20.36998-189.865815 153.25685-360.995647 330.675677-425.785585l5.406995-1.989998-4.843995-3.116997c-90.699911-58.332943-144.844859-155.509848-144.844859-259.989746-.001-172.217832 149.293854-323.297684 319.465688-323.297684 170.190834 0 319.466688 151.078852 319.466688 323.334684 0 104.460898-54.144947 201.637803-144.844859 259.989746l-4.843995 3.115997 5.406995 1.989998c177.419827 64.809937 310.304697 235.91977 330.675677 425.786585l1.050999 9.78199zm-448.053562-964.352058c-131.515872 0-260.589746 130.613872-260.589746 263.669742 0 138.911864 137.579866 242.715763 260.589746 242.715763s260.589746-103.784899 260.589746-242.716763c0-133.05487-129.073874-263.669743-260.589746-263.669742z" fill="#8a8a8a"/></svg>