<svg height="32" viewBox="0 0 1024 1024" width="32" xmlns="http://www.w3.org/2000/svg"><path d="m231.083 509.497c-.114 51.769-41.87 93.525-93.753 93.411-51.655-.113-93.64-42.097-93.526-93.866 0-51.542 42.212-93.526 93.98-93.412 51.656.114 93.299 41.984 93.299 93.867zm656.497-93.753c51.77 0 93.867 41.87 93.867 93.525.114 51.655-41.87 93.753-93.639 93.753-51.883 0-93.753-41.642-93.753-93.525s41.643-93.753 93.525-93.753zm-375.125 187.278c-51.655 0-93.98-42.439-93.753-93.753.342-51.769 42.212-93.525 93.98-93.525 51.656 0 93.867 42.212 93.64 93.753-.114 51.655-42.098 93.525-93.867 93.525z" fill="#1296db"/></svg>