<svg t="1663643660255" class="icon" viewBox="0 0 1024 1024" version="1.1" xmlns="http://www.w3.org/2000/svg" p-id="4300" width="32" height="32"><path d="M960.053562 1023.999l-0.938999-7.790992C933.074589 800.883218 732.506785 625.678389 512 625.678389S90.925411 800.865218 64.904437 1016.209008l-0.939999 7.790992H5.089495l1.050999-9.81999c20.36998-189.865815 153.25685-360.995647 330.675677-425.785585l5.406995-1.989998-4.843995-3.116997c-90.699911-58.332943-144.844859-155.509848-144.844859-259.989746C192.533312 151.079852 341.828166 0 512 0c170.190834 0 319.466688 151.078852 319.466688 323.334684 0 104.460898-54.144947 201.637803-144.844859 259.989746l-4.843995 3.115997 5.406995 1.989998c177.419827 64.809937 310.304697 235.91977 330.675677 425.786585l1.050999 9.78199h-58.857943zM512 59.646942c-131.515872 0-260.589746 130.613872-260.589746 263.669742 0 138.911864 137.579866 242.715763 260.589746 242.715763 123.00988 0 260.589746-103.784899 260.589746-242.716763 0-133.05487-129.073874-263.669743-260.589746-263.669742z" p-id="4301" fill="#8a8a8a"></path></svg>