<svg t="1660888088468" class="icon" viewBox="0 0 1024 1024" version="1.1" xmlns="http://www.w3.org/2000/svg" p-id="68607" width="32" height="32"><path d="M587.6224 826.9312l172.561067 61.371733c12.8 4.539733 17.134933 1.399467 16.776533-12.1856l-5.034667-183.074133c-1.262933-45.397333 19.029333-107.861333 46.728534-143.872l111.684266-145.134933c8.277333-10.752 6.638933-15.872-6.4-19.712l-175.6672-51.780267c-43.554133-12.834133-96.682667-51.421867-122.368-88.917333l-103.543466-151.074134c-7.68-11.195733-13.038933-11.195733-20.718934 0l-103.543466 151.074134c-25.6512 37.461333-78.779733 76.066133-122.368 88.917333L100.061867 384.324267c-13.021867 3.84-14.677333 8.942933-6.4 19.712l111.684266 145.152c27.682133 35.976533 47.991467 98.423467 46.728534 143.854933l-5.034667 183.074133c-0.3584 13.568 3.976533 16.725333 16.776533 12.1856l172.544-61.371733c42.786133-15.2064 108.458667-15.223467 151.261867 0z m-22.869333 64.324267c-28.0064-9.966933-77.533867-9.949867-105.506134 0l-172.561066 61.354666c-58.026667 20.650667-109.568-16.878933-107.8784-78.370133l5.034666-183.074133c0.8192-29.730133-14.506667-76.8-32.597333-100.352l-111.684267-145.152c-37.546667-48.810667-17.800533-109.431467 41.198934-126.805334l175.6672-51.797333c28.5184-8.413867 68.573867-37.512533 85.367466-62.020267l103.543467-151.074133c34.816-50.7904 98.56-50.7392 133.3248 0l103.543467 151.074133c16.810667 24.5248 56.8832 53.623467 85.367466 62.020267l175.6672 51.780267c59.067733 17.408 78.711467 78.062933 41.198934 126.805333l-111.684267 145.169067c-18.1248 23.552-33.416533 70.656-32.597333 100.352l5.034666 183.074133c1.706667 61.559467-49.92 98.986667-107.861333 78.370133L564.736 891.255467z" fill="#8a8a8a" p-id="68608"></path><path d="M582.485333 443.733333H392.533333a34.133333 34.133333 0 1 1 0-68.266666h235.776a51.2 51.2 0 0 1 33.501867 89.941333L450.048 648.533333H640a34.133333 34.133333 0 1 1 0 68.266667H404.224a51.2 51.2 0 0 1-33.501867-89.941333L582.485333 443.733333z" fill="#8a8a8a" p-id="68609"></path></svg>