<svg height="32" viewBox="0 0 1024 1024" width="32" xmlns="http://www.w3.org/2000/svg"><path d="m512.852414 399.526369c-30.783097 0-55.740512 24.958438-55.740512 55.740512 0 30.783097 24.957415 55.740512 55.740512 55.740512s55.740512-24.957415 55.740512-55.740512c0-30.782074-24.957415-55.740512-55.740512-55.740512zm-222.964094 0c-30.783097 0-55.740512 24.958438-55.740512 55.740512 0 30.783097 24.957415 55.740512 55.740512 55.740512s55.740512-24.957415 55.740512-55.740512c.001023-30.782074-24.957415-55.740512-55.740512-55.740512zm222.964094-334.446141c-246.27501 0-445.927165 174.709067-445.927165 390.186653 0 123.156948 65.361637 232.816486 167.222559 304.315914v197.352787l195.352223-118.529557c27.039843 4.461615 54.843072 7.04751 83.352383 7.04751 246.27501 0 445.928189-174.680415 445.928189-390.186653-.001024-215.476564-199.654203-390.186654-445.928189-390.186654zm0 724.632795c-32.552393 0-63.98836-3.781116-94.213755-10.233062l-131.200134 78.876442 1.755993-129.282458c-100.596116-60.476373-166.528758-160.472831-166.528758-273.80604 0-184.697559 174.694741-334.446142 390.186653-334.446142s390.186653 149.748582 390.186653 334.446142c.000002 184.723141-174.694739 334.445118-390.186652 334.445118zm222.964094-390.186654c-30.783097 0-55.740512 24.958438-55.740512 55.740512 0 30.783097 24.957415 55.740512 55.740512 55.740512s55.740512-24.957415 55.740512-55.740512c0-30.782074-24.958438-55.740512-55.740512-55.740512z" fill="#1296db"/></svg>