<svg height="32" viewBox="0 0 1024 1024" width="32" xmlns="http://www.w3.org/2000/svg"><g fill="#1296db"><path d="m505 980.6c-215.2 0-405.4-152.7-452.2-363.1-26.8-120.9-5-245 61.4-349.5 66.5-104.5 169.7-176.9 290.6-203.8 33.3-7.4 67.3-11.1 101.1-11.1 215.2 0 405.4 152.7 452.2 363.1 14.9 67.2 14.5 135.8-1.1 203.8-3.2 13.9-17 22.6-30.8 19.3-13.8-3.2-22.5-17-19.3-30.8 13.9-60.5 14.2-121.5.9-181.1-41.6-187.1-210.6-322.8-401.9-322.8-30 0-60.3 3.3-89.9 9.9-107.5 23.9-199.2 88.2-258.3 181.1s-78.5 203.2-54.6 310.7c41.6 187 210.6 322.8 401.9 322.8 30.1 0 60.3-3.3 89.9-9.9 48.7-10.8 95.1-30.6 137.7-58.9 11.8-7.9 27.8-4.6 35.7 7.3 7.8 11.9 4.6 27.8-7.3 35.7-47.9 31.7-100 54-154.9 66.2-33.3 7.3-67.3 11.1-101.1 11.1z"/><path d="m845.1 748.5c5.5 0 10.1 4.5 10.1 10.1 0 5.5-4.5 10.1-10.1 10.1s-10.1-4.5-10.1-10.1 4.5-10.1 10.1-10.1m0-51.5c-34 0-61.5 27.5-61.5 61.5s27.5 61.5 61.5 61.5 61.5-27.5 61.5-61.5-27.5-61.5-61.5-61.5z"/><path d="m602.9 624c64.5-37.3 108.3-110.5 108.3-194.8 0-122.1-92.2-221.1-205.9-221.1s-205.9 99-205.9 221.1c0 84.2 43.8 157.4 108.3 194.8-46.3 26.6-80.6 73.4-97 135.9-3.6 13.7 4.6 27.8 18.4 31.4 13.8 3.7 27.8-4.6 31.4-18.4 20.4-77.8 73.1-122.5 144.5-122.6h.2.2c71.4.1 124.1 44.8 144.5 122.6 3 11.6 13.5 19.2 24.9 19.2 2.2 0 4.4-.3 6.5-.8 13.7-3.6 22-17.7 18.4-31.4-16.3-62.5-50.5-109.3-96.8-135.9zm-252-194.8c0-93.6 69.3-169.7 154.4-169.7s154.4 76.1 154.4 169.7c0 93.5-69.1 169.5-154.2 169.7-.1 0-.2 0-.2 0-.1 0-.2 0-.2 0-85-.2-154.2-76.2-154.2-169.7z"/><path d="m505.4 568.3c-56.8 0-102.9-46.2-102.9-103 0-14.2 11.5-25.7 25.7-25.7s25.7 11.5 25.7 25.7c0 28.4 23.1 51.6 51.5 51.6s51.5-23.1 51.5-51.6c0-14.2 11.5-25.7 25.7-25.7s25.7 11.5 25.7 25.7c0 56.8-46.2 103-102.9 103z"/></g></svg>