<svg height="32" viewBox="0 0 1024 1024" width="32" xmlns="http://www.w3.org/2000/svg"><g fill="#8a8a8a"><path d="m801.416533 797.0112h-42.666666v-333.866667c0-128.106666-105.728-228.48-240.704-228.48s-240.704 100.373334-240.704 228.48v333.866667h-42.666667v-333.866667c0-152.042666 124.458667-271.146666 283.370667-271.146666s283.370666 119.104 283.370666 271.146666z"/><path d="m512 938.666667c-70.592 0-128-57.408-128-128h42.666667c0 47.061333 38.272 85.333333 85.333333 85.333333s85.333333-38.272 85.333333-85.333333h42.666667c0 70.592-57.408 128-128 128"/><path d="m853.333333 832h-682.666666c-11.776 0-21.333334-9.557333-21.333334-21.333333s9.557334-21.333334 21.333334-21.333334h682.666666c11.797334 0 21.333334 9.557334 21.333334 21.333334s-9.536 21.333333-21.333334 21.333333"/><path d="m512 225.282133c-11.776 0-21.333333-9.557333-21.333333-21.333333v-97.28c0-11.776 9.557333-21.333333 21.333333-21.333333s21.333333 9.557333 21.333333 21.333333v97.28c0 11.776-9.557333 21.333333-21.333333 21.333333"/></g></svg>