<svg height="32" viewBox="0 0 1024 1024" width="32" xmlns="http://www.w3.org/2000/svg"><g fill="#8a8a8a"><path d="m665.989881 381.141309v-95.036745c0-63.375275-44.221393-124.133899-106.497675-136.065825-100.060714-18.839883-174.373588 55.682322-174.373588 149.829406v81.273164h-68.032912a68.713242 68.713242 0 0 0 -68.451577 68.50391v285.16257a50.187356 50.187356 0 0 0 50.187356 50.187356h450.691879a54.269331 54.269331 0 0 0 54.269331-54.269331v-274.9053c0-41.186079-15.12424-74.679205-56.414984-74.679205zm-257.792406-83.680482c0-61.648285 46.053049-125.599223 120.941586-125.599223 70.963561 0 116.33628 55.839321 116.33628 125.599223v84.570144h-237.277866zm372.349364 431.537998a36.633107 36.633107 0 0 1 -34.121122 35.063116h-440.068278c-17.269893 0-35.377115-20.043543-35.377115-37.836766v-275.637962c0-23.759186 20.933204-47.623039 45.529718-47.623039l414.791435-1.255992c27.893494 0 49.088363 18.107221 49.088363 54.164665zm-254.443093-170.343947"/><path d="m525.371084 515.323146a38.831093 38.831093 0 1 1 -38.674094 38.831093 38.831093 38.831093 0 0 1 38.674094-38.831093z"/><path d="m526.627076 562.893852h.052333q12.769254 0 12.769255 12.769254v70.963561q0 12.769254-12.769255 12.769255h-.052333q-12.769254 0-12.769254-12.769255v-70.963561q0-12.769254 12.769254-12.769254z"/></g></svg>