<svg t="1661648188067" class="icon" viewBox="0 0 1024 1024" version="1.1" xmlns="http://www.w3.org/2000/svg" p-id="3983" width="32" height="32"><path d="M665.989881 381.141309V286.104564c0-63.375275-44.221393-124.133899-106.497675-136.065825-100.060714-18.839883-174.373588 55.682322-174.373588 149.829406v81.273164h-68.032912a68.713242 68.713242 0 0 0-68.451577 68.50391v285.16257A50.187356 50.187356 0 0 0 298.821485 784.995145h450.691879a54.269331 54.269331 0 0 0 54.269331-54.269331V455.820514c0-41.186079-15.12424-74.679205-56.414984-74.679205zM408.197475 297.460827c0-61.648285 46.053049-125.599223 120.941586-125.599223 70.963561 0 116.33628 55.839321 116.33628 125.599223V382.030971H408.197475z m372.349364 431.537998a36.633107 36.633107 0 0 1-34.121122 35.063116H306.357439c-17.269893 0-35.377115-20.043543-35.377115-37.836766V450.587213c0-23.759186 20.933204-47.623039 45.529718-47.623039l414.791435-1.255992c27.893494 0 49.088363 18.107221 49.088363 54.164665z m-254.443093-170.343947" fill="#8a8a8a" p-id="3984"></path><path d="M525.371084 515.323146a38.831093 38.831093 0 1 1-38.674094 38.831093 38.831093 38.831093 0 0 1 38.674094-38.831093z" fill="#8a8a8a" p-id="3985"></path><path d="M513.857822 562.893852m12.769254 0l0.052333 0q12.769254 0 12.769255 12.769254l0 70.963561q0 12.769254-12.769255 12.769255l-0.052333 0q-12.769254 0-12.769254-12.769255l0-70.963561q0-12.769254 12.769254-12.769254Z" fill="#8a8a8a" p-id="3986"></path></svg>