<svg height="32" viewBox="0 0 1024 1024" width="32" xmlns="http://www.w3.org/2000/svg"><g fill="#8a8a8a"><path d="m934.4 112c-16-16-38.4-25.6-60.8-25.6s-44.8 9.6-60.8 25.6l-73.6 73.6-411.2 411.2-30.4 152 152-30.4 409.6-409.6 73.6-73.6c35.2-35.2 35.2-89.6 1.6-123.2zm-166.4 104 3.2-3.2 17.6-17.6 62.4 62.4-392 393.6-62.4-62.4zm-401.6 401.6 62.4 62.4-78.4 16zm539.2-412.8-25.6 24-62.4-62.4 24-24c16-16 46.4-16 62.4 0 19.2 16 19.2 44.8 1.6 62.4z"/><path d="m851.2 392c-12.8 0-24 11.2-24 24v464c0 4.8-3.2 8-8 8h-649.6c-4.8 0-8-3.2-8-8v-648c0-4.8 3.2-8 8-8h472c12.8 0 24-11.2 24-24s-9.6-24-24-24h-472c-30.4 0-56 25.6-56 56v648c0 30.4 25.6 56 56 56h648c30.4 0 56-25.6 56-56v-464c1.6-12.8-9.6-24-22.4-24z"/></g></svg>