<svg t="1661760971776" class="icon" viewBox="0 0 1024 1024" version="1.1" xmlns="http://www.w3.org/2000/svg" p-id="20883" width="32" height="32"><path d="M517.725091 644.072727a23.133091 23.133091 0 0 1-10.682182-2.606545L73.541818 417.419636a23.272727 23.272727 0 0 1 0-41.332363l433.501091-224.046546a23.249455 23.249455 0 0 1 21.364364 0l433.501091 224.046546a23.272727 23.272727 0 0 1 0 41.332363l-433.501091 224.046546a23.063273 23.063273 0 0 1-10.682182 2.606545zM134.912 396.753455l382.813091 197.864727 382.813091-197.864727-382.813091-197.864728-382.813091 197.864728z" fill="#8a8a8a" p-id="20884"></path><path d="M517.725091 955.298909c-3.560727 0-7.144727-0.814545-10.402909-2.443636l-279.272727-139.636364a23.272727 23.272727 0 0 1-12.869819-20.829091v-302.545454a23.272727 23.272727 0 1 1 46.545455 0V778.007273l256 128 256-128V489.844364a23.272727 23.272727 0 1 1 46.545454 0v302.545454c0 8.820364-4.980364 16.872727-12.869818 20.829091l-279.272727 139.636364c-3.258182 1.605818-6.818909 2.443636-10.402909 2.443636zM874.123636 629.480727a23.272727 23.272727 0 0 1-23.272727-23.272727V436.596364a23.272727 23.272727 0 1 1 46.545455 0v169.588363a23.272727 23.272727 0 0 1-23.272728 23.296z" fill="#8a8a8a" p-id="20885"></path></svg>