<svg t="1661760671894" class="icon" viewBox="0 0 1024 1024" version="1.1" xmlns="http://www.w3.org/2000/svg" p-id="10072" width="32" height="32"><path d="M758.272 921.088c-5.12 0-10.24-1.024-14.848-3.584L512 796.16l-231.424 121.344c-10.752 5.632-23.552 4.608-33.28-2.56s-14.336-18.944-12.288-30.72l44.032-257.024-187.392-182.272c-8.704-8.192-11.776-20.992-8.192-32.256 3.584-11.776 13.312-19.968 25.6-21.504l259.072-37.376 115.712-233.984c5.12-10.752 16.384-17.408 28.16-17.408 12.288 0 23.04 6.656 28.16 17.408l115.712 233.984 259.072 37.376c11.776 1.536 22.016 9.728 25.6 21.504 3.584 11.264 0.512 24.064-8.192 32.256l-187.392 182.272 44.032 257.024c2.048 11.776-2.56 23.552-12.288 30.72-5.12 4.096-11.776 6.144-18.432 6.144z m-624.64-492.032l177.152 172.032c7.68 7.168 10.752 17.92 9.216 28.16l-41.984 243.2L497.152 757.76c9.216-4.608 19.968-4.608 29.184 0l219.136 114.688-41.984-243.2c-1.536-10.24 1.536-20.48 9.216-28.16l177.664-172.032-245.248-35.84c-10.24-1.536-18.944-7.68-23.552-17.408L512 154.624 402.432 376.32c-4.608 9.216-13.312 15.36-23.552 16.896l-245.248 35.84z" p-id="10073" fill="#8a8a8a"></path></svg>