<svg t="1661760618729" class="icon" viewBox="0 0 1024 1024" version="1.1" xmlns="http://www.w3.org/2000/svg" p-id="8288" width="32" height="32"><path d="M513.9 959.3c-60.4 0-119-11.8-174.2-35.2-53.3-22.5-101.1-54.8-142.2-95.9-41.1-41.1-73.4-88.9-95.9-142.2-23.3-55.2-35.2-113.8-35.2-174.2s11.8-119 35.2-174.2c22.5-53.3 54.8-101.1 95.9-142.2 41.1-41.1 88.9-73.4 142.2-95.9 55.2-23.3 113.8-35.2 174.2-35.2 60.4 0 119 11.8 174.2 35.2 53.3 22.5 101.1 54.8 142.2 95.9 41.1 41.1 73.4 88.9 95.9 142.2 23.3 55.2 35.2 113.8 35.2 174.2s-11.8 119-35.2 174.2c-22.5 53.3-54.8 101.1-95.9 142.2-41.1 41.1-88.9 73.4-142.2 95.9-55.1 23.4-113.8 35.2-174.2 35.2z m0-839c-52.9 0-104.1 10.3-152.4 30.8C315 170.8 273.1 199 237.1 235s-64.2 77.8-83.9 124.5c-20.4 48.2-30.8 99.5-30.8 152.4s10.3 104.1 30.8 152.4c19.7 46.6 47.9 88.5 83.9 124.5s77.8 64.2 124.5 83.9c48.2 20.4 99.5 30.8 152.4 30.8 52.9 0 104.1-10.3 152.4-30.8 46.6-19.7 88.5-47.9 124.5-83.9 36-36 64.2-77.8 83.9-124.5 20.4-48.2 30.8-99.5 30.8-152.4s-10.3-104.1-30.8-152.4c-19.7-46.6-47.9-88.5-83.9-124.5-36-36-77.8-64.2-124.5-83.9-48.3-20.5-99.6-30.8-152.5-30.8z" fill="#8a8a8a" p-id="8289"></path><path d="M512.4 716m-39.4 0a39.4 39.4 0 1 0 78.8 0 39.4 39.4 0 1 0-78.8 0Z" fill="#8a8a8a" p-id="8290"></path><path d="M508.2 648.3h-0.2c-15.3 0-27.7-12.3-27.9-27.5-0.4-28 0.2-69.2 6.6-84.7 9.1-21.9 31.8-34.4 55.5-47.7 38.2-21.5 63.2-38.1 63.2-71.2 0-51.3-41.7-93-93-93-44 0-80.9 30.7-90.6 71.7-3 12.6-14.4 21.3-27.3 21.3-17.9 0-31.3-16.6-27.2-34 15.5-66 74.9-115.2 145.5-115 81.6 0.2 148.3 67 148.6 148.6 0.2 68.5-55.1 99.7-91.7 120.3-11.5 6.5-28.7 16.2-31.7 21.3-2.4 6.2-2.3 37.4-1.9 61.5 0.3 15.6-12.3 28.4-27.9 28.4z" fill="#8a8a8a" p-id="8291"></path></svg>