<svg height="32" viewBox="0 0 1024 1024" width="32" xmlns="http://www.w3.org/2000/svg"><path d="m921.569608 320.364425c-50.833759-108.726284-140.957359-191.143365-253.80245-232.086869-112.863511-40.924061-234.838539-35.475979-343.584266 15.375175-19.437701 9.092076-27.826765 32.231075-18.73469 51.687197 9.111518 19.456121 32.268938 27.826765 51.686173 18.734689 89.878007-42.044582 190.802604-46.561455 284.115849-12.69923 93.313246 33.843806 167.853939 102.007255 209.897498 191.922101 86.784552 185.581696 6.396687 407.211399-179.185009 494.013347-90.143043 42.119283-191.238532 46.599318-284.760532 12.603039-93.160773-33.901111-167.492712-102.007255-209.251791-191.751208-52.826136-113.51024-53.679573-222.995817-2.315742-292.884561 24.694425-33.598212 59.392692-52.768831 88.073918-48.972364 25.946952 3.454682 39.61423 25.435299 46.50415 43.258223.057305.170892.170892.303922.228197.455371.075725.208754.113587.417509.190335.60682l165.480892 393.050888a38.938847 38.938847 0 0 0 35.628452 23.783683h.207731c15.470343 0 29.497824-9.188266 35.666314-23.385617l170.662915-393.050887c8.541537-19.702738-.493234-42.595121-20.178575-51.155077-19.7406-8.523117-42.574654.512676-51.154054 20.177551l-134.447085 309.665759-130.193201-309.265646c-.095167-.246617-.26606-.435928-.379646-.682545-20.348444-51.059909-59.564607-84.069721-107.947548-90.52269-57.476039-7.611352-119.090329 23.00597-160.982438 79.988776-68.447928 93.104491-70.517053 232.067426-5.543249 371.734396 50.547233 108.612697 140.463102 191.011358 253.175163 232.012168 50.187029 18.259876 102.178147 27.351951 154.035212 27.351951 64.934918 0 129.642662-14.255679 190.231599-42.59512 224.419236-104.969727 321.625138-372.951107 216.675878-597.36932z" fill="#8a8a8a"/></svg>