<svg height="32" viewBox="0 0 1024 1024" width="32" xmlns="http://www.w3.org/2000/svg"><g fill="#8a8a8a"><path d="m291.636 385.404c-30.49 0-55.207 25.633-55.207 57.266 0 31.637 24.717 57.272 55.207 57.272 30.486 0 55.203-25.635 55.203-57.272 0-31.632-24.717-57.266-55.203-57.266z"/><path d="m512.461 385.404c-30.49 0-55.208 25.633-55.208 57.266 0 31.637 24.722 57.272 55.208 57.272s55.204-25.635 55.204-57.272c0-31.632-24.718-57.266-55.204-57.266z"/><path d="m733.287 385.404c-30.492 0-55.208 25.633-55.208 57.266 0 31.637 24.716 57.272 55.208 57.272 30.486 0 55.202-25.635 55.202-57.272 0-31.632-24.716-57.266-55.202-57.266z"/><path d="m843.697 99.077h-662.476c-60.972 0-110.41 51.287-110.41 114.539v429.487c0 63.256 50.543 121.56 112.92 121.56h168.257c29.33 31.245 150.716 156.912 150.716 156.912 5.389 5.606 14.124 5.606 19.514 0 0 0 88.87-100.764 146.775-156.912h172.193c62.376 0 112.92-58.308 112.92-121.56v-429.488c.001-63.252-49.433-114.538-110.409-114.538zm55.754 544.221c0 31.669-26.565 64.899-57.799 64.899h-169.577c-20.543 0-39.009 21.123-39.009 21.123l-119.066 123.495-119.045-123.495s-22.676-21.123-42.112-21.123h-169.576c-31.235 0-57.794-33.23-57.794-64.899v-430.093c0-31.677 24.751-57.353 55.28-57.353h663.411c30.53 0 55.287 25.676 55.287 57.353z"/></g></svg>