<svg height="32" viewBox="0 0 1024 1024" width="32" xmlns="http://www.w3.org/2000/svg"><g fill="#8a8a8a"><path d="m762.805186 140.938939c-14.335497-9.66922-33.725102-5.887081-43.373857 8.398274-9.648754 14.295588-5.897314 33.714869 8.398274 43.373857 106.369609 71.852468 169.864736 191.267185 169.864736 319.445496 0 212.414831-172.802648 385.217479-385.217479 385.217479s-385.217478-172.802648-385.217478-385.217479c0-128.178311 63.494103-247.593028 169.864736-319.445496 14.295588-9.658987 18.047028-29.078269 8.398274-43.373857-9.658987-14.285355-29.088502-18.067494-43.373857-8.398274-123.573433 83.4936-197.35688 222.267223-197.35688 371.217627 0 246.851131 200.834074 447.685205 447.685205 447.685205s447.685206-200.834074 447.685206-447.685205c0-148.950404-73.78447-287.724027-197.35688-371.217627z"/><path d="m401.003 64.47136c-17.253966 0-31.234375 13.980409-31.234375 31.233352v30.470989c0 17.253966 13.980409 31.234375 31.234375 31.234375s31.234375-13.980409 31.234375-31.234375v-30.470989c-.001023-17.253966-13.980409-31.233352-31.234375-31.233352z"/><path d="m623.950721 64.47136c-17.253966 0-31.233352 13.980409-31.233352 31.233352v30.470989c0 17.253966 13.980409 31.234375 31.233352 31.234375s31.234375-13.980409 31.234375-31.234375l.000001-30.470989c-.001024-17.253966-13.98041-31.233352-31.234376-31.233352z"/><path d="m426.012603 227.493248c11.214413 18.047028 41.970904 48.589648 86.157265 48.589648 43.963281 0 75.105558-30.318516 86.574774-48.223305 9.222035-14.396895 5.03262-33.358759-9.242502-42.763966-14.304797-9.405207-33.593096-5.398964-43.159986 8.764618-.132006.193405-13.614066 19.754926-34.172287 19.754926-19.989263 0-32.423457-18.098193-33.267685-19.36914-9.160637-14.427594-28.264741-18.799158-42.834574-9.770528-14.650673 9.109472-19.155267 28.366048-10.055005 43.017747z"/><path d="m510.781242 335.164502c-17.253966 0-31.233352 13.980409-31.233352 31.233352v208.225415c0 .63445.149403 1.227967.187265 1.853208.067538 1.115404.148379 2.217505.333598 3.314489.168846 1.00898.416486 1.978051.679475 2.951215.258896.954745.529049 1.895163.87595 2.821255.36839.981351.801249 1.916653 1.26276 2.847861.431835.876973.880043 1.734504 1.393743 2.569522.532119.860601 1.115404 1.670036 1.727341 2.472308.610914.805342 1.235131 1.588171 1.926886 2.336208.688685.74292 1.424442 1.420349 2.181689 2.093684.741897.659009 1.484817 1.303692 2.298346 1.89721.899486.657986 1.850138 1.222851 2.819209 1.783623.544399.314155 1.00898.714268 1.577938.998747l208.225415 104.113219c4.484128 2.236947 9.252735 3.304256 13.94971 3.304256 11.44875 0 22.479991-6.334265 27.959795-17.274432 7.706519-15.433504 1.454118-34.192753-13.970176-41.909505l-190.961216-95.480608-.000001-188.917675c0-17.253966-13.980409-31.233352-31.234375-31.233352z"/></g></svg>