<svg t="1682426715057" class="icon" viewBox="0 0 1024 1024" version="1.1" xmlns="http://www.w3.org/2000/svg" p-id="1570" width="32" height="32"><path d="M805.258 154.247c-72.241-30.869-175.501-46.369-289.002-46.369s-216.736 15.495-288.87 46.37c-82.501 36.114-123.882 77.37-123.882 128.997V763.12c0 46.499 41.241 92.878 123.882 123.882 72.241 30.998 175.501 46.511 288.87 46.511 113.498 0 216.758-15.495 289.002-46.511 77.375-30.997 123.882-77.375 123.882-123.882V283.245c0-51.488-41.367-92.878-123.882-128.997m-46.51 211.623c-67.136 25.871-159.999 36.126-242.5 36.126-87.743 0-175.501-10.372-242.496-36.126-77.375-20.638-113.498-51.629-113.498-82.501 0-30.879 41.241-61.883 113.498-87.743 67.006-25.753 154.738-36.131 242.496-36.131 82.503 0 175.501 15.495 242.5 36.131 72.263 25.751 113.498 56.756 113.498 87.743 0.117 30.871-36 61.874-113.498 82.501m5.242 149.621c-67.136 20.623-159.999 36.126-247.759 36.126s-175.501-15.495-247.618-36.114c-72.263-25.76-113.5-56.756-113.5-87.745v-56.756c51.629 20.623 87.743 46.37 144.501 56.756 67.137 15.495 139.376 25.871 216.758 25.871 77.375 0 149.625-10.372 216.736-25.871 56.756-10.372 92.881-36.126 144.501-56.756v61.874c-0.117 25.876-41.365 56.876-113.613 82.623m-0.006 165.114c-67.136 20.623-159.999 36.126-247.759 36.126s-175.501-15.495-247.618-36.126c-72.263-20.623-113.5-51.629-113.5-87.743v-77.375c51.629 25.871 87.743 46.511 144.501 62 67.137 15.495 139.376 25.753 216.758 25.753 77.375 0 149.625-10.372 216.736-25.753 56.756-15.495 92.881-36.126 144.501-62v77.375c-0.117 36.126-41.365 67.136-113.613 87.743M516.249 881.847c-87.743 0-175.501-15.371-247.618-36.126-72.263-20.638-113.5-51.629-113.5-87.743v-77.375c51.629 25.753 87.743 46.499 144.501 61.874 61.883 15.495 139.376 25.871 211.507 25.871 77.375 0 149.625-10.372 216.758-25.871 62-15.495 98.127-36.126 149.625-61.874v77.375c0 30.997-41.247 62-113.498 87.743-67.136 25.751-165.127 36.114-247.759 36.114z" p-id="1571" fill="#8a8a8a"></path></svg>