<svg height="32" viewBox="0 0 1024 1024" width="32" xmlns="http://www.w3.org/2000/svg"><g fill="#1296db"><path d="m512 960c-247.04 0-448-200.96-448-448s200.96-448 448-448c100.330667 0 195.2 32.448 274.346667 93.802667a21.312 21.312 0 1 1 -26.112 33.706666 401.621333 401.621333 0 0 0 -248.234667-84.842666c-223.509333 0-405.333333 181.824-405.333333 405.333333s181.824 405.333333 405.333333 405.333333 405.333333-181.824 405.333333-405.333333c0-55.637333-11.050667-109.525333-32.853333-160.213333a21.333333 21.333333 0 0 1 39.189333-16.853334 445.568 445.568 0 0 1 36.330667 177.066667c0 247.04-200.981333 448-448 448z"/><path d="m456.298667 673.109333a21.269333 21.269333 0 0 1 -15.082667-6.250666l-182.549333-182.549334a21.312 21.312 0 1 1 30.165333-30.165333l182.549333 182.549333a21.312 21.312 0 0 1 -15.082666 36.416z"/><path d="m456.298667 673.109333a21.312 21.312 0 0 1 -15.104-36.394666l289.450666-290.602667a21.333333 21.333333 0 1 1 30.208 30.101333l-289.450666 290.624a21.248 21.248 0 0 1 -15.104 6.272z"/><path d="m818.325333 250.325333a32 32 0 1 0 64 0 32 32 0 1 0 -64 0z"/></g></svg>