<svg height="32" viewBox="0 0 1025 1024" width="32" xmlns="http://www.w3.org/2000/svg"><path d="m317.846769 957.296943c6.289728 0 12.576383-2.398963 17.376358-7.19689l392.936471-392.937495c25.550034-25.550034 25.550034-67.121826 0-92.671861-.12389-.12389-.249828-.246756-.375766-.367575l-407.301582-390.221127c-9.799606-9.388005-25.355496-9.056266-34.744525.744365s-9.056266 25.355496.744365 34.744525l407.071208 389.999968c3.002032 3.076775 4.652535 7.130337 4.652535 11.436799 0 4.375062-1.704769 8.490057-4.798951 11.583215l-392.936471 392.936471c-9.595853 9.596877-9.595853 25.154815 0 34.751692 4.797927 4.797926 11.088678 7.197913 17.376358 7.197913z" fill="#8a8a8a"/></svg>