<svg height="32" viewBox="0 0 1024 1024" width="32" xmlns="http://www.w3.org/2000/svg"><g fill="#8a8a8a"><path d="m760.090355 263.551488c-17.47807-41.321104-42.487673-78.426187-74.343195-110.281709s-68.960605-56.865125-110.281709-74.343195c-42.784432-18.092054-88.219227-27.27111-135.055952-27.27111-46.826492 0-92.261287 9.179057-135.055952 27.27111-41.310871 17.47807-78.415954 42.487673-110.271476 74.343195s-56.865125 68.960605-74.343195 110.281709c-18.092054 42.784432-27.27111 88.219227-27.27111 135.055952 0 46.826492 9.179057 92.261287 27.27111 135.055952 17.47807 41.310871 42.487673 78.415954 74.343195 110.271476s68.960605 56.865125 110.271476 74.343195c42.794665 18.092054 88.22946 27.27111 135.055952 27.27111 46.836725 0 92.27152-9.179057 135.055952-27.27111 41.321104-17.47807 78.426187-42.487673 110.281709-74.343195s56.865125-68.960605 74.343195-110.271476c18.092054-42.794665 27.27111-88.22946 27.27111-135.055952 0-46.836725-9.179057-92.27152-27.27111-135.055952zm-103.292528 351.434048c-57.796334 57.796334-134.64663 89.63139-216.388329 89.63139s-158.581762-31.835056-216.378096-89.63139c-57.796334-57.786101-89.63139-134.636397-89.63139-216.378096s31.835056-158.591995 89.63139-216.388329 134.636397-89.63139 216.378096-89.63139 158.591995 31.835056 216.388329 89.63139 89.63139 134.64663 89.63139 216.388329-31.835056 158.591995-89.63139 216.378096z"/><path d="m954.805058 933.397493c-3.990894 4.001127-9.230222 5.996574-14.46955 5.996574s-10.478655-1.995447-14.46955-5.996574l-193.855126-193.844893c-7.981788-7.992021-7.981788-20.947078 0-28.939099 8.002254-7.992021 20.957311-7.992021 28.949332 0l193.844893 193.844893c7.992023 7.992021 7.992023 20.947077.000001 28.939099z"/></g></svg>