<svg t="1661865879380" class="icon" viewBox="0 0 1024 1024" version="1.1" xmlns="http://www.w3.org/2000/svg" p-id="3408" width="32" height="32"><path d="M512 1024a512 512 0 1 1 512-512 512.520855 512.520855 0 0 1-512 512z m0-971.914547a459.914547 459.914547 0 1 0 459.914547 459.914547A460.435402 460.435402 0 0 0 512 52.085453z" p-id="3409" fill="#8a8a8a"></path><path d="M421.110885 710.706002a27.344863 27.344863 0 0 1-18.490336-8.073245l-160.944048-169.277721a26.042726 26.042726 0 1 1 37.761953-35.938963l142.453713 149.745677 323.450661-326.054934a26.042726 26.042726 0 0 1 36.980671 0 26.042726 26.042726 0 0 1 0 36.720244L439.601221 703.153611a26.042726 26.042726 0 0 1-18.490336 7.552391z" p-id="3410" fill="#8a8a8a"></path></svg>