<svg height="32" viewBox="0 0 1024 1024" width="32" xmlns="http://www.w3.org/2000/svg"><g fill="#8a8a8a"><path d="m512 1024a512 512 0 1 1 512-512 512.520855 512.520855 0 0 1 -512 512zm0-971.914547a459.914547 459.914547 0 1 0 459.914547 459.914547 460.435402 460.435402 0 0 0 -459.914547-459.914547z"/><path d="m421.110885 710.706002a27.344863 27.344863 0 0 1 -18.490336-8.073245l-160.944048-169.277721a26.042726 26.042726 0 1 1 37.761953-35.938963l142.453713 149.745677 323.450661-326.054934a26.042726 26.042726 0 0 1 36.980671 0 26.042726 26.042726 0 0 1 0 36.720244l-342.722278 345.326551a26.042726 26.042726 0 0 1 -18.490336 7.552391z"/></g></svg>