<svg height="32" viewBox="0 0 1024 1024" width="32" xmlns="http://www.w3.org/2000/svg"><g fill="#8a8a8a"><path d="m757.248 974.848c-13.312 0-28.672-4.096-43.008-10.752l-200.704-100.352-202.24 100.352c-12.8 6.656-27.648 10.24-42.496 10.24-19.456 0-38.912-6.144-53.76-17.408-28.16-20.992-43.008-57.856-36.352-91.648l41.472-215.04-158.72-147.456c-24.576-24.576-33.792-61.44-24.576-94.208l.512-1.024c11.264-34.304 39.936-58.88 74.752-63.488l220.16-39.936 98.816-200.704c15.872-31.744 48.128-52.224 82.432-52.224 35.84 0 68.608 20.992 82.432 52.736l98.304 200.192 220.16 38.4c34.816 5.12 64 30.72 73.216 64 10.752 33.28 2.048 69.632-23.04 94.72l-.512.512-157.184 148.48 39.936 215.04c6.656 34.304-7.168 69.12-35.84 90.624-14.848 12.288-33.792 18.944-53.76 18.944zm-243.712-169.984 224.256 112.128c6.656 3.072 14.336 5.632 19.456 5.632 8.192 0 15.36-2.56 20.992-7.168l1.024-1.024c12.8-9.728 18.944-24.576 16.384-39.424l-45.056-243.2 178.688-167.936c10.752-11.264 14.848-27.136 9.728-41.472l-.512-1.536c-3.584-13.824-15.872-24.576-30.72-26.624h-1.024l-246.784-43.008-111.104-225.792c-5.632-12.8-19.968-21.504-34.816-21.504-14.336 0-28.672 9.216-35.328 23.04l-111.104 223.744-248.32 45.056c-14.848 2.048-26.624 11.776-32.256 27.648-4.096 14.336.512 31.232 11.264 41.984l178.688 166.4-46.592 243.2c-3.072 14.336 4.096 30.208 16.384 39.424 6.144 4.608 14.336 7.168 22.528 7.168 6.656 0 12.8-1.536 17.92-4.608l1.024-.512z"/><path d="m756.736 477.184h-2.048l-162.816-28.672-72.704-147.968c-3.072-6.144-.512-13.312 5.632-15.872 6.144-3.072 13.312-.512 15.872 5.632l67.584 137.216 151.04 26.624c6.656 1.024 10.752 7.168 9.728 13.824-1.536 5.12-6.144 9.216-12.288 9.216z"/></g></svg>