<svg height="32" viewBox="0 0 1024 1024" width="32" xmlns="http://www.w3.org/2000/svg"><path d="m711.328 735.968-33.792 92.8a32 32 0 0 1 -60.16-21.888l130.368-358.08a31.968 31.968 0 0 1 42.016-21.888c10.208 3.712 17.376 12.096 19.968 21.856l130.336 358.08a32 32 0 0 1 -60.16 21.92l-33.76-92.8h-134.784zm23.264-64h88.256l-44.128-121.28-44.128 121.312zm-499.84-95.968h202.496l-101.248-278.144zm-23.296 64-66.816 183.648a32 32 0 0 1 -60.128-21.888l218.848-601.44a32 32 0 0 1 32.64-20.96 32 32 0 0 1 32.64 20.96l218.88 601.408a32 32 0 0 1 -60.16 21.888l-66.784-183.616z" fill="#8a8a8a"/></svg>