<svg height="32" viewBox="0 0 1024 1024" width="32" xmlns="http://www.w3.org/2000/svg"><path d="m232.675556 1023.81037c-61.231407 0-118.632296-23.665778-161.621333-66.635852l-4.228741-4.209778c-89.088-89.125926-89.088-234.116741 0-323.242667l181.096296-181.077333c3.470222 25.372444 9.557333 50.422519 18.090667 74.600296l-152.822519 152.841481c-63.525926 63.544889-63.525926 166.930963 0 230.494815l4.266667 4.266667c30.72 30.72 71.642074 47.634963 115.218963 47.634963s84.517926-16.933926 115.256889-47.672889l228.882963-228.882963c63.525926-63.544889 63.525926-166.949926 0-230.494815l-4.266667-4.247704c-2.066963-2.066963-4.190815-4.077037-6.409481-6.049185l46.40237-46.40237c2.180741 2.010074 4.304593 4.039111 6.371556 6.106074l4.266667 4.247704c89.088 89.088 89.069037 234.078815-.018963 323.204741l-228.864001 228.882964c-42.970074 42.970074-100.370963 66.635851-161.621333 66.635851zm178.782814-394.543407c-2.180741-2.029037-4.304593-4.058074-6.352593-6.106074l-4.247704-4.247704c-43.083852-43.102815-66.825481-100.484741-66.825481-161.60237 0-61.11763 23.74163-118.499556 66.825481-161.60237l228.864-228.882963c42.951112-42.970075 100.352001-66.635852 161.602371-66.635852s118.651259 23.665778 161.621333 66.635852l4.171852 4.209778c43.140741 43.102814 66.882371 100.522666 66.882371 161.640296s-23.722667 118.518519-66.825481 161.621333l-181.077333 181.096296c-3.489185-25.41037-9.557333-50.479407-18.090667-74.619259l152.822519-152.841481c63.544889-63.544889 63.544889-166.949926 0-230.494815l-4.28563-4.266667c-30.72-30.72-71.642074-47.634963-115.218963-47.634963-43.557926 0-84.498963 16.933926-115.237926 47.691852l-228.882963 228.864c-30.738963 30.738963-47.672889 71.68-47.672889 115.256889s16.933926 84.517926 47.672889 115.237926l4.228741 4.247704c2.029037 2.048 4.171852 4.077037 6.428444 6.068148z" fill="#8a8a8a"/></svg>