<svg height="32" viewBox="0 0 1024 1024" width="32" xmlns="http://www.w3.org/2000/svg"><path d="m242.005333 740.742095a25.209905 25.209905 0 0 1 -24.868571-20.967619c-.292571-2.096762-8.679619-53.199238-2.389333-121.61219a478.841905 478.841905 0 0 1 23.893333-113.566476 363.081143 363.081143 0 0 1 65.340952-116.589715c70.119619-82.651429 176.225524-126.878476 315.879619-131.608381v-166.570666c0-10.142476 6.192762-19.358476 15.506286-23.259429a25.209905 25.209905 0 0 1 27.452952 5.558857l309.248 311.052191c9.752381 9.849905 9.752381 25.648762 0 35.498666l-310.710857 311.149715a25.161143 25.161143 0 0 1 -42.959238-17.798096v-161.109333a415.939048 415.939048 0 0 0 -116.297143 14.140952c-101.522286 27.209143-181.735619 89.039238-238.640762 183.53981a24.868571 24.868571 0 0 1 -21.455238 12.141714zm428.227048-594.748952v135.265524a5.36381 5.36381 0 0 1 -5.412571 5.363809c-146.578286-3.803429-255.122286 34.523429-322.364953 113.859048-59.294476 69.973333-75.824762 159.110095-78.994286 223.963428-.292571 5.851429 7.021714 8.923429 11.020191 4.534858a441.441524 441.441524 0 0 1 77.726476-69.241905 439.344762 439.344762 0 0 1 139.117714-63.829334c86.016-22.625524 152.966095-13.848381 155.794286-13.409523a25.112381 25.112381 0 0 1 21.650286 24.917333v108.739048c0 5.558857 6.826667 8.387048 10.727619 4.388571l234.934857-235.27619a6.38781 6.38781 0 0 0 0-8.874667l-233.472-234.788572a6.241524 6.241524 0 0 0 -10.727619 4.388572zm282.819048 838.217143h-887.222858a25.258667 25.258667 0 0 1 -25.258666-25.258667v-888.58819c0-13.945905 11.312762-25.258667 25.258666-25.258667h303.104a25.161143 25.161143 0 0 1 .731429 50.273524h-272.481524a6.339048 6.339048 0 0 0 -6.241524 6.339047v825.929143c0 3.413333 2.82819 6.290286 6.241524 6.290286h824.515048a6.339048 6.339048 0 0 0 6.290286-6.339048v-252.732952c0-14.872381 12.141714-26.819048 27.014095-25.795048 12.970667.975238 23.259429 11.849143 23.259428 25.063619v284.818286a25.258667 25.258667 0 0 1 -25.258666 25.258667z" fill="#1296db"/></svg>