<svg height="32" viewBox="0 0 1024 1024" width="32" xmlns="http://www.w3.org/2000/svg"><path d="m512 874.666667a32 32 0 0 1 32 32v64a32 32 0 0 1 -64 0v-64a32 32 0 0 1 32-32zm-256.426667-106.24a32 32 0 0 1 0 45.269333l-45.269333 45.248a32 32 0 0 1 -45.248-45.226667l45.226667-45.269333a32 32 0 0 1 45.269333 0zm558.122667 0 45.248 45.269333a32 32 0 0 1 -45.226667 45.248l-45.269333-45.226667a32 32 0 1 1 45.248-45.269333zm-301.696-555.093334c164.949333 0 298.666667 133.717333 298.666667 298.666667s-133.717333 298.666667-298.666667 298.666667-298.666667-133.717333-298.666667-298.666667 133.717333-298.666667 298.666667-298.666667zm0 64c-129.6 0-234.666667 105.066667-234.666667 234.666667s105.066667 234.666667 234.666667 234.666667 234.666667-105.066667 234.666667-234.666667-105.066667-234.666667-234.666667-234.666667zm-394.666667 202.666667a32 32 0 0 1 0 64h-64a32 32 0 0 1 0-64zm853.333334 0a32 32 0 0 1 0 64h-64a32 32 0 0 1 0-64zm-760.362667-314.944 45.248 45.226667a32 32 0 1 1 -45.248 45.269333l-45.248-45.248a32 32 0 0 1 45.226667-45.248zm648.64 0a32 32 0 0 1 0 45.226667l-45.226667 45.269333a32 32 0 1 1 -45.269333-45.248l45.248-45.248a32 32 0 0 1 45.248 0zm-346.944-143.722667a32 32 0 0 1 32 32v64a32 32 0 0 1 -64 0v-64a32 32 0 0 1 32-32z" fill="#8a8a8a"/></svg>