<svg height="32" viewBox="0 0 1024 1024" width="32" xmlns="http://www.w3.org/2000/svg"><path d="m720.024199 351.521545c0 259.827641-221.37703 469.494584-494.203586 473.067991 78.511375 91.05714 197.258887 145.666943 326.238161 145.666942 231.677057 0 418.199246-174.779145 418.199246-388.489122 0-162.588837-109.02069-306.67623-270.391319-363.244579 13.309646 42.857343 20.157499 87.526106 20.157498 132.998768zm-76.280938-131.526327c-9.553802-27.055963-9.007669-37.450152 0-49.873508 0 0 28.781462-16.84892 59.647412-7.071485 186.396248 59.043605 320.609692 224.239522 320.609692 418.717131 0 244.20046-211.335945 442.232644-471.941591 442.232644-157.887853 0-297.577931-72.693407-383.223172-184.328239-6.153416-8.018979-9.259549-17.87292-8.788745-27.878694 1.121692-23.846253 21.852395-42.292377 46.303632-41.197757 4.425563.198915 8.55452.297784 12.385692.297784 247.139457 0 447.544497-187.78983 447.544497-419.371549 0-45.950529-7.93188-90.163789-22.53624-131.52515zm-306.183062 278.629223 4.35612-26.753471-18.702713-19.486602c-4.374952-4.557389-4.269021-11.840736.235403-16.266299a11.31932 11.31932 0 0 1 6.2464-3.126143l25.329287-3.813517 20.8896-44.885333a.75211.75211 0 0 0 .051788-.154189l.015302-.068266a.045903.045903 0 0 1 .01177-.022364.009416.009416 0 0 1 .015301.003532l20.934326 45.12662 25.361067 3.818225c6.209913.935724 10.495411 6.787825 9.571457 13.07189a11.555899 11.555899 0 0 1 -3.080239 6.311136l-18.665048 19.49131 4.354943 26.753471c1.021646 6.268763-3.173223 12.187954-9.369012 13.220193a11.254584 11.254584 0 0 1 -7.33749-1.277057l-21.754703-12.137343-21.75588 12.137343c-5.497821 3.068469-12.412763 1.045186-15.444745-4.518547a11.620634 11.620634 0 0 1 -1.262934-7.424589zm-305.010758-320.471981 8.990014-53.652892-38.116341-38.589499a11.767761 11.767761 0 0 1 .251881-16.84068 12.192662 12.192662 0 0 1 6.654823-3.236782l52.159264-7.630566c12.360975-38.801361 24.068708-58.202041 35.120846-58.202041 11.054492 0 21.675844 19.40068 31.866409 58.202041l52.191044 7.636451c6.617159.96868 11.182786 7.026759 10.198805 13.532101a11.833674 11.833674 0 0 1 -3.281508 6.534768l-38.03395 38.594207 8.990014 53.652892c1.086382 6.490041-3.382731 12.617563-9.983412 13.687466-2.683586.434317-5.436616-.031779-7.81771-1.32296l-45.695117-24.773738-45.695117 24.773738c-5.857986 3.176754-13.226078 1.082851-16.455798-4.677444a11.737159 11.737159 0 0 1 -1.345324-7.685885z" fill="#8a8a8a"/></svg>