<svg t="1660116593886" class="icon" viewBox="0 0 1024 1024" version="1.1" xmlns="http://www.w3.org/2000/svg" p-id="2356" width="32" height="32"><path d="M512.042667 682.666667c-94.122667 0-170.666667-76.544-170.666667-170.666667s76.544-170.666667 170.666667-170.666667 170.666667 76.544 170.666666 170.666667-76.586667 170.666667-170.666666 170.666667z m0-298.666667c-70.570667 0-128 57.429333-128 128s57.429333 128 128 128 128-57.429333 128-128-57.429333-128-128-128z" p-id="2357" fill="#1296db"></path><path d="M512.042667 810.666667C267.989333 810.666667 66.56 603.562667 10.666667 540.074667a42.922667 42.922667 0 0 1-0.085334-56.106667C66.517333 420.48 267.989333 213.333333 512.042667 213.333333c243.797333 0 445.098667 206.72 501.205333 270.378667l0.256 0.298667c13.866667 15.957333 13.866667 40.021333 0 55.978666C957.525333 603.52 756.053333 810.666667 512.042667 810.666667z m0-554.666667C285.909333 256 95.573333 452.010667 42.666667 512.128 95.616 571.989333 285.866667 768 512.042667 768c226.133333 0 416.426667-196.010667 469.376-256.128C928.426667 452.010667 738.133333 256 512.042667 256z" p-id="2358" fill="#1296db"></path></svg>