<svg height="32" viewBox="0 0 1024 1024" width="32" xmlns="http://www.w3.org/2000/svg"><g fill="#1296db"><path d="m512.042667 682.666667c-94.122667 0-170.666667-76.544-170.666667-170.666667s76.544-170.666667 170.666667-170.666667 170.666667 76.544 170.666666 170.666667-76.586667 170.666667-170.666666 170.666667zm0-298.666667c-70.570667 0-128 57.429333-128 128s57.429333 128 128 128 128-57.429333 128-128-57.429333-128-128-128z"/><path d="m512.042667 810.666667c-244.053334 0-445.482667-207.104-501.376-270.592a42.922667 42.922667 0 0 1 -.085334-56.106667c55.936-63.488 257.408-270.634667 501.461334-270.634667 243.797333 0 445.098667 206.72 501.205333 270.378667l.256.298667c13.866667 15.957333 13.866667 40.021333 0 55.978666-55.978667 63.530667-257.450667 270.677334-501.461333 270.677334zm0-554.666667c-226.133334 0-416.469334 196.010667-469.376 256.128 52.949333 59.861333 243.2 255.872 469.376 255.872 226.133333 0 416.426667-196.010667 469.376-256.128-52.992-59.861333-243.285334-255.872-469.376-255.872z"/></g></svg>