<svg height="32" viewBox="0 0 1024 1024" width="32" xmlns="http://www.w3.org/2000/svg"><g fill="#8a8a8a"><path d="m400.756383 521.126868c-17.171078 0-31.092136 13.922081-31.092136 31.092136v30.332842c0 17.171078 13.922081 31.092136 31.092136 31.092136s31.092136-13.922081 31.092136-31.092136v-30.332842c0-17.171078-13.922081-31.092136-31.092136-31.092136z"/><path d="m622.698195 521.126868c-17.171078 0-31.092136 13.922081-31.092136 31.092136v30.332842c0 17.171078 13.922081 31.092136 31.092136 31.092136s31.092136-13.922081 31.092136-31.092136v-30.332842c.001022-17.171078-13.921058-31.092136-31.092136-31.092136z"/><path d="m588.406181 661.936871c-14.20042-9.351995-33.420157-5.374404-42.964534 8.714476-.132006.197498-13.552667 19.669992-34.021861 19.669992-19.903306 0-32.281217-18.025539-33.121352-19.286252-9.134031-14.362102-28.157293-18.724457-42.635029-9.716292-14.589276 9.063423-19.068288 28.233018-10.004865 42.817178 11.158131 17.965164 41.785685 48.368614 85.762269 48.368614 43.763736 0 74.764797-30.176276 86.186941-48.004317 9.17394-14.330381 5.0142-33.201171-9.201569-42.563399z"/><path d="m366.630145 220.097814c17.171078 0 31.092136-13.922081 31.092136-31.092136v-10.364045h228.010017v10.364045c0 17.171078 13.922081 31.092136 31.092136 31.092136s31.092136-13.922081 31.092136-31.092136l-.000001-93.27743c0-17.171078-13.922081-31.092136-31.092136-31.092136-17.171078 0-31.092136 13.922081-31.092136 31.092136v20.72809l-228.010017.000001v-20.728091c0-17.171078-13.922081-31.092136-31.092136-31.092136s-31.092136 13.922081-31.092136 31.092136v93.276407c.000001 17.171078 13.922082 31.093159 31.092137 31.093159z"/><path d="m779.675412 100.035344c-17.170055 0-31.092136 13.922081-31.092136 31.092136s13.922081 31.092136 31.092136 31.092136c52.063773 0 94.415346 43.191708 94.415346 96.28288v121.04382h-724.726939v-121.115452c0-53.090149 42.351574-96.28288 94.415346-96.28288 17.171078 0 31.092136-13.922081 31.092136-31.092136s-13.922081-31.092136-31.092136-31.092136c-86.348624 0-156.599617 71.086012-156.599617 158.467151v543.03176c0 87.38114 70.250994 158.472268 156.594501 158.472268l535.901363.070608c86.348624 0 156.599617-71.091128 156.599617-158.472268l.000001-543.030736c0-87.381139-70.250994-158.467151-156.599618-158.467151zm.005117 797.785885-535.901363-.070608c-52.063773 0-94.415346-43.191708-94.415346-96.287997l-.000001-359.732037h724.726939v359.802646c0 53.096288-42.351573 96.287996-94.410229 96.287996z"/></g></svg>